<?xml version="1.0" encoding="utf-8"?>
<svg viewBox="0 0 500 500" width="500" height="500" xmlns="http://www.w3.org/2000/svg">
  <path style="stroke: rgb(0, 0, 0); fill: currentColor; stroke-width: 0px;" d="M 119.122 47.239 C 5.315 197.113 30.59 291.246 194.947 329.638 C 202.871 337.972 205.876 348.491 203.964 361.197 C 119.668 376.499 56.139 342.89 13.376 260.37 C 34.416 388.112 97.262 429.508 201.915 384.559 C 217.763 386.472 223.131 389.85 232.967 399.414 L 245.36 447.679 L 254.378 399.725 C 262.575 387.565 274.051 378.411 288.807 372.264 C 383.758 422.678 447.288 387.292 479.394 266.108 C 422.15 341.387 359.713 371.308 292.085 355.869 C 288.67 347.126 290.718 337.288 298.234 326.359 C 465.869 278.677 484.618 188.511 356.056 49.567 C 394.721 179.904 369.855 255.866 285.56 293.847 L 247.41 191.103 L 201.505 297.258 C 116.39 282.912 85.649 185.364 119.122 47.239 Z"/>
</svg>