<?xml version="1.0" encoding="utf-8"?>
<svg viewBox="0 0 500 500" width="500px" height="500px" xmlns="http://www.w3.org/2000/svg">
  <path style="stroke: rgb(0, 0, 0); fill: currentcolor;" d="M 230.394 481.72 L 261.324 483.438 L 268.198 465.109 C 287.291 469.967 300.656 456.494 308.293 424.693 C 311.141 412.834 304.458 402.63 288.246 394.083 C 374.549 395.611 428.014 368.88 448.637 313.891 C 445.006 301.671 438.321 300.526 428.581 310.454 C 412.161 328.975 392.685 342.914 370.156 352.269 C 367.864 345.586 366.146 326.492 368.438 319.046 C 424.571 295.655 455.501 266.919 458.938 221.382 C 460.847 159.807 426.671 132.028 355.262 125.442 C 328.15 92.984 299.128 76.945 268.198 77.327 C 266.671 66.254 262.851 59.762 256.742 57.852 L 271.635 35.513 L 247.578 0 L 224.666 32.65 L 241.276 58.425 C 232.303 62.244 227.529 69.117 226.957 79.046 C 187.625 82.292 159.368 98.139 142.182 126.588 C 94.853 124.296 48.308 154.275 48.308 211.362 C 47.904 278.57 148.102 315.419 167.386 317.329 C 155.827 316.071 173.112 342.641 163.109 343.196 C 148.821 343.989 109.195 342.622 98.078 347.114 C 79.366 334.894 62.755 313.7 51.682 303.008 C 45.381 306.254 44.044 312.555 47.672 321.91 C 62.374 353.033 85.094 373.08 115.834 382.054 L 194.881 392.938 L 201.18 403.821 C 194.879 406.195 190.107 413.153 186.861 424.693 C 187.434 444.275 198.317 458.128 219.51 466.256 L 230.394 481.72 Z" transform="matrix(1, 0, 0, 1, 0, -2.842170943040401e-14)"/>
</svg>