<?xml version="1.0" encoding="utf-8"?>
<svg viewBox="0 0 500 500" width="500px" height="500px" xmlns="http://www.w3.org/2000/svg">
  <path style="stroke: rgb(0, 0, 0); fill: currentcolor;" d="M 42.807 260.23 L 156.481 228.985 C 183.513 152.982 230.046 140.795 296.078 192.424 L 491.517 134.591 L 383.162 107.999 C 335.078 66.341 271.039 49.502 191.047 57.478 C 59.869 106.893 10.454 174.476 42.807 260.23 Z"/>
  <path style="stroke: rgb(0, 0, 0); fill: currentcolor; transform-origin: 223.392px 310.746px;" d="M 13.191 408.723 L 122.022 378.81 C 147.903 306.044 192.453 294.377 255.673 343.807 L 442.785 288.436 L 339.046 262.978 C 293.011 223.095 231.701 206.973 155.116 214.61 C 29.526 261.918 -17.782 326.623 13.191 408.723 Z" transform="matrix(-1, 0, 0, -1, 0, 0.000061035156)"/>
</svg>