<?xml version="1.0" encoding="utf-8"?>
<svg viewBox="0 0 500 500" width="500" height="500" xmlns="http://www.w3.org/2000/svg">
  <path style="fill: currentColor; stroke: rgb(0, 0, 0);" d="M 108.815 45.754 L 158.805 95.273 L 169.18 153.279 L 253.597 224.02 L 339.428 140.075 L 339.428 86.312 L 397.435 47.641 L 396.964 174.501 L 254.068 297.119 L 107.872 166.484 L 108.815 45.754 Z" transform="matrix(1, 0, 0, 1, 0, -7.105427357601002e-15)"/>
  <path style="fill: currentColor; stroke: rgb(0, 0, 0);" d="M 4.59 245.713 L 6.477 245.713 L 131.923 245.243 L 251.71 365.5 L 366.309 255.145 L 495.529 254.673 L 441.295 313.624 L 383.287 315.511 L 252.654 440.957 L 125.792 309.38 L 46.564 309.38 L 4.59 245.713 Z" transform="matrix(1, 0, 0, 1, 0, -7.105427357601002e-15)"/>
</svg>