<?xml version="1.0" encoding="utf-8"?>
<svg viewBox="0 0 500 500" width="500" height="500" xmlns="http://www.w3.org/2000/svg">
  <path d="M 16.367 0 L 484.074 0 C 486.283 0 488.074 1.791 488.074 4 L 488.074 496 C 488.074 498.209 486.283 500 484.074 500 L 16.367 500 C 14.158 500 12.367 498.209 12.367 496 L 12.367 4 C 12.367 1.791 14.158 0 16.367 0 Z M 66.696 36.71 L 66.696 242 C 66.696 246.418 70.278 250 74.696 250 L 417.795 250 C 422.213 250 425.795 246.418 425.795 242 L 425.795 36.71 C 425.795 32.292 422.213 28.71 417.795 28.71 L 74.696 28.71 C 70.278 28.71 66.696 32.292 66.696 36.71 Z M 316.033 358.658 C 298.104 358.658 283.569 373.193 283.569 391.122 C 283.569 409.051 298.104 423.586 316.033 423.586 C 333.962 423.586 348.497 409.051 348.497 391.122 C 348.497 373.193 333.962 358.658 316.033 358.658 Z M 406.802 313.163 C 389.238 313.163 375 327.401 375 344.965 C 375 362.529 389.238 376.767 406.802 376.767 C 424.366 376.767 438.604 362.529 438.604 344.965 C 438.604 327.401 424.366 313.163 406.802 313.163 Z M 106.449 287.777 L 106.449 325.53 L 47.495 325.53 C 46.39 325.53 45.495 326.425 45.495 327.53 L 45.495 374.767 C 45.495 375.872 46.39 376.767 47.495 376.767 L 106.449 376.767 L 106.449 421.586 C 106.449 422.691 107.344 423.586 108.449 423.586 L 173.354 423.586 C 174.459 423.586 175.354 422.691 175.354 421.586 L 175.354 376.767 L 223.707 376.767 C 224.812 376.767 225.707 375.872 225.707 374.767 L 225.707 327.53 C 225.707 326.425 224.812 325.53 223.707 325.53 L 175.354 325.53 L 175.354 287.777 C 175.354 286.672 174.459 285.777 173.354 285.777 L 108.449 285.777 C 107.344 285.777 106.449 286.672 106.449 287.777 Z" style="fill: currentColor; stroke: rgb(0, 0, 0);"/>
</svg>