<?xml version="1.0" encoding="utf-8"?>
<svg viewBox="0 0 500 500" width="500" height="500" xmlns="http://www.w3.org/2000/svg">
  <path style="fill: currentColor; stroke: rgb(0, 0, 0);" d="M 238.167 252.253 C 262.244 208.77 273.025 157.382 270.509 98.088 L 239.244 75.987 L 211.753 102.4 C 215.168 162.413 223.971 212.364 238.167 252.253 Z"/>
  <path style="fill: currentColor; stroke: rgb(0, 0, 0);" d="M 458.252 298.793 C 482.328 255.31 493.109 203.922 490.594 144.628 L 459.329 122.527 L 431.838 148.94 C 435.252 208.953 444.056 258.904 458.252 298.793 Z"/>
  <path style="fill: currentColor; stroke: rgb(0, 0, 0); transform-origin: -340.159px 182.989px;" d="M 41.035 305.621 C 65.112 262.138 75.893 210.75 73.377 151.456 L 42.112 129.355 L 14.621 155.768 C 18.036 215.781 26.839 265.732 41.035 305.621 Z"/>
  <path style="fill: currentColor; stroke: rgb(0, 0, 0);" d="M 50.107 330.328 C 84.965 350.811 120.183 371.295 155.76 391.777 L 233.381 364.288 L 316.393 393.396 L 453.309 321.704 C 481.339 376.506 455.465 414.059 375.687 434.362 L 102.933 437.057 C 12.194 411.183 -5.413 375.607 50.107 330.328 Z"/>
</svg>