<?xml version="1.0" encoding="utf-8"?>
<svg viewBox="0 0 500 500" width="500" height="500" xmlns="http://www.w3.org/2000/svg">
  <path style="stroke: rgb(0, 0, 0); fill: rgb(233, 30, 99); fill-opacity: 0.56;" d="M 154.409 146.334 L 32.116 278.003 L 32.116 353.825 L 186.205 321.621 L 250.613 253.544 C 274.392 278.818 298.443 304.092 322.766 329.366 L 466.664 347.71 L 471.148 285.748 L 340.295 149.595 L 432.422 66.028 L 428.753 19.964 L 252.651 52.983 L 102.23 19.964 L 76.549 53.799 L 154.409 146.334 Z"/>
  <path style="stroke: rgb(0, 0, 0); fill: rgb(244, 67, 54);" d="M 195.173 164.678 L 237.568 207.888 L 178.867 288.194 C 130.765 293.222 87.283 299.608 48.421 307.353 L 195.173 164.678 Z"/>
  <path style="stroke: rgb(0, 0, 0); fill: rgb(244, 67, 54);" d="M 317.466 163.862 L 451.581 295.124 L 436.091 321.213 L 318.689 283.302 L 262.842 194.843 L 317.466 163.862 Z"/>
  <path style="stroke: rgb(0, 0, 0); fill: rgb(244, 67, 54);" d="M 105.676 41.347 L 251.798 173.015 L 399.811 41.162 L 276.702 88.449 L 255.504 41.569 L 231.23 88.225 L 105.676 41.347 Z"/>
</svg>