<?xml version="1.0"?>
<svg width="500" height="500" xmlns="http://www.w3.org/2000/svg" xmlns:svg="http://www.w3.org/2000/svg">
 <g class="layer">
  <title>Layer 1</title>
  <rect fill="rgba(153, 153, 153, 0)" height="63.09" id="svg_3" stroke="rgb(153, 153, 153)" stroke-width="20px" transform="matrix(1 0 0 1 0 0)" width="67.26" x="351.06" y="346.78"/>
  <path d="m157.77,351.02c0,3.6 -1.35,6.96 -3.68,9.8c11.51,4.43 19.15,12.25 19.15,21.15c0,13.81 -18.38,25 -41.07,25c-22.68,0 -41.06,-11.19 -41.06,-25c0,-9.49 8.68,-17.75 21.48,-21.98c-1.93,-2.66 -3.03,-5.72 -3.03,-8.97c0,-10.19 10.79,-18.45 24.1,-18.45c13.31,0 24.11,8.26 24.11,18.45z" fill="rgb(153, 153, 153)" id="svg_5" stroke="rgb(0, 0, 0)" stroke-width="0px"/>
  <path d="m222.15,348.34c0,3.6 -1.35,6.96 -3.69,9.8c11.51,4.43 19.16,12.25 19.16,21.15c0,13.81 -18.39,25 -41.07,25c-22.68,0 -41.07,-11.19 -41.07,-25c0,-9.49 8.69,-17.74 21.49,-21.98c-1.94,-2.65 -3.04,-5.71 -3.04,-8.97c0,-10.19 10.8,-18.45 24.11,-18.45c13.31,0 24.11,8.26 24.11,18.45z" fill="rgb(153, 153, 153)" id="svg_6" stroke="rgb(0, 0, 0)" stroke-width="0px" transform="matrix(1 0 0 1 0 0)"/>
  <rect fill="rgb(153, 153, 153)" height="75.59" id="svg_7" stroke="rgb(0, 0, 0)" transform="matrix(1 0 0 1 0 0)" width="25.75" x="103.96" y="194.48"/>
  <rect fill="rgb(153, 153, 153)" height="75.59" id="svg_8" stroke="rgb(0, 0, 0)" width="24.46" x="393.39" y="198.34"/>
  <rect fill="rgb(153, 153, 153)" height="159.52" id="svg_9" stroke="rgb(0, 0, 0)" width="367.44" x="71.86" y="29.13"/>
 </g>
</svg>