<?xml version="1.0" encoding="utf-8"?>
<svg viewBox="0.03 0 24 24" width="24" height="24" xmlns="http://www.w3.org/2000/svg">
  <rect fill="none" height="24" id="svg_1" width="24" x="0.03" y="0"/>
  <path d="M 21 7 L 21 8 C 21 10.55 19.08 12.63 16.61 12.94 C 15.98 14.44 14.63 15.57 13 15.9 L 13 19 L 17 19 L 17 21 L 7 21 L 7 19 L 11 19 L 11 15.9 C 9.37 15.57 8.02 14.44 7.39 12.94 C 4.92 12.63 3 10.55 3 8 L 3 7 C 3 5.9 3.9 5 5 5 L 7 5 L 7 3 L 17 3 L 17 5 L 19 5 C 20.1 5 21 5.9 21 7 Z M 7 10.82 L 7 7 L 5 7 L 5 8 C 5 9.3 5.84 10.4 7 10.82 Z M 19 7 L 17 7 L 17 10.82 C 18.16 10.4 19 9.3 19 8 Z M 12.15 3.32 C 9.808 3.32 7.91 5.218 7.91 7.56 C 7.91 9.902 9.808 11.8 12.15 11.8 C 14.492 11.8 16.39 9.902 16.39 7.56 C 16.39 5.218 14.492 3.32 12.15 3.32 Z" id="svg_2" style="fill: rgb(153, 153, 153); stroke: rgb(153, 153, 153);"/>
  <ellipse cx="12.13" cy="7.67" id="svg_4" rx="1.17" ry="1.18" style="stroke-width: 0px; stroke: rgb(153, 153, 153); fill: rgb(153, 153, 153);"/>
  <rect height="1.06" id="svg_5" stroke-width="0" width="7.62" x="8.38" y="6.91" style="stroke: rgb(153, 153, 153); fill: rgb(153, 153, 153);"/>
</svg>