<svg version="1.2" xmlns="http://www.w3.org/2000/svg" viewBox="0 0 500 500" width="500" height="500"><style>.a{opacity:0;fill:#999;stroke:#000;stroke-width:20}.b{stroke:#000;stroke-width:.4}.c{stroke:#000}</style><path class="a" d="m351.1 346.8h67.2v63.1h-67.2z"/><path class="b" d="m157.8 351c0 3.6-1.4 7-3.7 9.8 11.5 4.4 19.1 12.3 19.1 21.2 0 13.8-18.3 25-41 25-22.7 0-41.1-11.2-41.1-25 0-9.5 8.7-17.8 21.5-22-1.9-2.7-3-5.7-3-9 0-10.2 10.8-18.4 24.1-18.4 13.3 0 24.1 8.2 24.1 18.4z"/><path class="b" d="m222.2 348.3c0 3.6-1.4 7-3.7 9.8 11.5 4.5 19.1 12.3 19.1 21.2 0 13.8-18.4 25-41 25-22.7 0-41.1-11.2-41.1-25 0-9.5 8.7-17.8 21.5-22-2-2.6-3.1-5.7-3.1-9 0-10.2 10.8-18.4 24.1-18.4 13.4 0 24.2 8.2 24.2 18.4z"/><path class="c" d="m104 194.5h25.7v75.6h-25.7z"/><path class="c" d="m393.4 198.3h24.4v75.6h-24.4z"/><path class="c" d="m71.9 29.1h367.4v159.6h-367.4z"/></svg>