<?xml version="1.0" encoding="utf-8"?>
<svg viewBox="0 0 500 500" width="500" height="500" xmlns="http://www.w3.org/2000/svg">
  <path style="stroke: rgb(0, 0, 0); fill: currentColor;" d="M 30.583 65.889 L 59.082 35.053 L 260.918 35.053 L 292.221 62.151 L 291.287 101.397 L 466.491 113.077 L 468.827 371.913 L 286.147 370.044 L 288.483 440.125 L 259.516 466.757 L 63.287 465.355 L 26.378 435.453 Z M 72.632 137.036 L 72.632 273.667 C 72.632 274.772 73.527 275.667 74.632 275.667 L 253.779 275.667 C 254.884 275.667 255.779 274.772 255.779 273.667 L 255.779 137.036 C 255.779 135.931 254.884 135.036 253.779 135.036 L 74.632 135.036 C 73.527 135.036 72.632 135.931 72.632 137.036 Z" transform="matrix(1, 0, 0, 1, 2.842170943040401e-14, 0)"/>
</svg>