<?xml version="1.0" encoding="utf-8"?>
<svg viewBox="0 0 500 500" width="500px" height="500px" xmlns="http://www.w3.org/2000/svg" xmlns:xlink="http://www.w3.org/1999/xlink" xmlns:bx="https://boxy-svg.com">
  <defs>
    <radialGradient gradientUnits="userSpaceOnUse" cx="156.751" cy="452.869" r="35.391" id="gradient-10-5" xlink:href="#gradient-10"/>
    <linearGradient id="gradient-10" bx:pinned="true">
      <stop offset="0" style="stop-color: rgb(66, 133, 244);"/>
      <stop offset="0.3" style="stop-color: rgb(0, 188, 212);"/>
      <stop offset="0.6" style="stop-color: rgb(0, 188, 212);"/>
      <stop offset="1" style="stop-color: rgb(66, 133, 244);"/>
    </linearGradient>
    <radialGradient gradientUnits="userSpaceOnUse" cx="361.684" cy="454.554" r="35.391" id="gradient-10-6" xlink:href="#gradient-10"/>
    <radialGradient gradientUnits="userSpaceOnUse" cx="259.638" cy="330.753" r="206.391" id="gradient-10-7" xlink:href="#gradient-10"/>
    <radialGradient gradientUnits="userSpaceOnUse" cx="271.301" cy="148.67" r="149.768" id="gradient-10-8" xlink:href="#gradient-10"/>
    <radialGradient gradientUnits="userSpaceOnUse" cx="273.383" cy="42.756" r="21.654" id="gradient-10-9" xlink:href="#gradient-10"/>
  </defs>
  <path style="stroke: rgb(255, 255, 255); fill-rule: nonzero; paint-order: stroke; fill: url('#gradient-10-5'); stroke-width: 6px;" d="M 131.013 483.762 C 149.341 489.776 168.241 480.612 187.714 456.271 C 201.558 438.966 182.944 426.938 131.873 420.189 C 118.148 448.071 117.862 469.262 131.013 483.762 Z"/>
  <path style="stroke: rgb(255, 255, 255); fill-rule: nonzero; paint-order: stroke; fill: url('#gradient-10-6'); stroke-width: 6px;" d="M 335.946 423.661 C 354.274 417.647 373.174 426.811 392.647 451.152 C 406.491 468.457 387.877 480.485 336.806 487.234 C 323.081 459.352 322.795 438.161 335.946 423.661 Z" transform="matrix(-1, 0, 0, -1, 723.3684692382812, 909.1078491210938)"/>
  <path style="stroke: rgb(255, 255, 255); fill-rule: nonzero; paint-order: stroke; fill: url('#gradient-10-7'); stroke-width: 6px;" d="M 121.134 425.344 L 194.588 459.708 L 343.643 455.842 C 397.194 435.796 428.408 439.089 452.749 394.416 C 452.749 394.416 468.318 317.173 465.741 278.134 C 464.937 265.95 443.472 229.71 428.573 222.165 C 393.636 221.878 389.455 267.886 251.718 264.261 C 134.101 261.165 120.19 198.018 99.227 201.976 C 81.043 228.895 69.731 247.795 65.292 258.677 C 50.307 295.413 49.304 335.075 62.285 377.663 C 78.894 402.148 98.511 418.041 121.134 425.344 Z"/>
  <path style="stroke: rgb(255, 255, 255); fill-rule: nonzero; paint-order: stroke; fill: url('#gradient-10-8'); stroke-width: 6px;" d="M 237.086 67.629 L 323.856 69.348 C 374.83 84.955 406.044 110.585 417.498 146.238 C 436.106 204.158 381.982 231.936 255.127 229.571 C 165.637 223.844 121.106 198.643 121.536 153.97 C 121.998 105.976 160.515 77.196 237.086 67.629 Z M 171.364 124.76 L 140.007 153.11 L 172.653 184.038 L 188.117 173.299 L 185.969 125.189 L 171.364 124.76 Z M 237.086 170.722 L 226.777 183.609 L 247.825 199.932 L 305.814 196.925 L 301.519 166.427 L 268.443 139.365 L 237.086 170.722 Z M 346.192 124.76 L 346.192 161.701 L 367.24 183.179 L 390.866 142.801 L 360.797 115.31 L 346.192 124.76 Z"/>
  <ellipse style="stroke: rgb(255, 255, 255); fill-rule: nonzero; paint-order: stroke; fill: url('#gradient-10-9'); stroke-width: 6px;" cx="273.383" cy="42.756" rx="21.654" ry="21.478"/>
</svg>