<?xml version="1.0" encoding="utf-8"?>
<svg viewBox="0 0 500 500" width="500" height="500" xmlns="http://www.w3.org/2000/svg" xmlns:xlink="http://www.w3.org/1999/xlink" xmlns:bx="https://boxy-svg.com">
  <defs>
    <radialGradient id="gradient-10-0" gradientUnits="userSpaceOnUse" cx="256.942" cy="176.603" r="219.727" xlink:href="#gradient-10"/>
    <linearGradient id="gradient-10" bx:pinned="true">
      <stop offset="0" style="stop-color: rgb(66, 133, 244);"/>
      <stop offset="0.3" style="stop-color: rgb(0, 188, 212);"/>
      <stop offset="0.6" style="stop-color: rgb(0, 188, 212);"/>
      <stop offset="1" style="stop-color: rgb(66, 133, 244);"/>
    </linearGradient>
    <radialGradient id="gradient-10-1" gradientUnits="userSpaceOnUse" cx="253.986" cy="413.318" r="225.635" xlink:href="#gradient-10"/>
    <radialGradient id="gradient-10-2" gradientUnits="userSpaceOnUse" cx="254.05" cy="330.597" r="43.577" xlink:href="#gradient-10"/>
  </defs>
  <path style="stroke: rgb(255, 255, 255); fill: url('#gradient-10-0'); stroke-width: 6px;" d="M 59.373 128.965 L 160.556 258.955 L 250.664 13.746 L 350.373 264.125 L 445.648 123.795 L 476.668 339.459 L 328.214 329.12 C 325.261 287.268 306.301 259.222 258.471 258.12 C 216.161 257.146 194.542 273.626 179.021 326.165 L 37.215 339.459 L 59.373 128.965 Z"/>
  <path style="stroke: rgb(255, 255, 255); fill: url('#gradient-10-1'); stroke-width: 6px;" d="M 31.307 377.866 L 28.351 466.496 C 93.346 446.554 169.174 438.922 255.834 443.599 C 329.439 447.57 402.804 454.711 475.931 465.017 L 479.622 374.912 L 324.181 360.14 C 321.473 385.498 298.617 395.447 257.448 394.853 C 228.63 394.437 198.104 382.006 180.408 360.14 L 31.307 377.866 Z"/>
  <ellipse style="stroke: rgb(255, 255, 255); fill: url('#gradient-10-2'); stroke-width: 6px;" cx="254.05" cy="330.597" rx="43.577" ry="43.577"/>
</svg>