<?xml version="1.0" encoding="utf-8"?>
<svg viewBox="0 0 500 500" width="500px" height="500px" xmlns="http://www.w3.org/2000/svg" xmlns:xlink="http://www.w3.org/1999/xlink" xmlns:bx="https://boxy-svg.com">
  <defs>
    <radialGradient id="gradient-10-0" gradientUnits="userSpaceOnUse" cx="253.652" cy="234.322" r="219.717" xlink:href="#gradient-10"/>
    <linearGradient id="gradient-10" bx:pinned="true">
      <stop offset="0" style="stop-color: rgb(66, 133, 244);"/>
      <stop offset="0.3" style="stop-color: rgb(0, 188, 212);"/>
      <stop offset="0.6" style="stop-color: rgb(0, 188, 212);"/>
      <stop offset="1" style="stop-color: rgb(66, 133, 244);"/>
    </linearGradient>
    <radialGradient id="gradient-10-1" gradientUnits="userSpaceOnUse" cx="596.534" cy="472.412" r="56.38" xlink:href="#gradient-10"/>
    <radialGradient id="gradient-10-2" gradientUnits="userSpaceOnUse" cx="552.032" cy="502.718" r="69.064" xlink:href="#gradient-10"/>
    <radialGradient id="gradient-10-3" gradientUnits="userSpaceOnUse" cx="79.159" cy="75.109" r="78.975" xlink:href="#gradient-10"/>
    <radialGradient id="gradient-10-4" gradientUnits="userSpaceOnUse" cx="405.478" cy="385.6" r="78.975" xlink:href="#gradient-10"/>
  </defs>
  <ellipse style="stroke-width: 15px; fill: none; stroke: url('#gradient-10-0');" cx="253.652" cy="234.322" rx="219.717" ry="219.717"/>
  <path d="M 540.154 462.037 H 569.912 L 569.912 430.911 L 652.914 472.412 L 569.912 513.913 L 569.912 482.787 H 540.154 V 462.037 Z" style="stroke-width: 9.00001px; fill: url('#gradient-10-1'); transform-origin: 596.534px 472.412px;" transform="matrix(0.632375776768, 0.774661004543, -0.774661004543, 0.632375776768, -306.71736943147, -190.265265705007)" bx:shape="arrow 540.154 430.911 112.76 83.002 20.75 83.002 0 1@9989670e"/>
  <path d="M 482.968 492.343 H 538.095 L 538.095 461.217 L 621.097 502.718 L 538.095 544.219 L 538.095 513.093 H 482.968 V 492.343 Z" style="stroke-width: 9px; fill: url('#gradient-10-2'); transform-origin: 552.032px 502.718px;" transform="matrix(-0.625075995922, -0.780564010143, 0.780564010143, -0.625075995922, -321.819749267084, -295.124216835756)" bx:shape="arrow 482.968 461.217 138.129 83.002 20.75 83.002 0 1@ffa5a0fa"/>
  <path d="M 79.159 0 L 94.778 61.541 L 158.134 57.379 L 104.431 91.25 L 127.968 150.219 L 79.159 109.611 L 30.35 150.219 L 53.887 91.25 L 0.184 57.379 L 63.54 61.541 Z" style="stroke: rgb(255, 255, 255); stroke-width: 8px; fill: url('#gradient-10-3');" bx:shape="star 79.159 83.039 83.039 83.039 0.32 5 1@c829376c"/>
  <path d="M 405.478 310.491 L 421.097 372.032 L 484.453 367.87 L 430.75 401.741 L 454.287 460.71 L 405.478 420.102 L 356.669 460.71 L 380.206 401.741 L 326.503 367.87 L 389.859 372.032 Z" style="stroke: rgb(255, 255, 255); stroke-width: 8px; fill: url('#gradient-10-4');" bx:shape="star 405.478 393.53 83.039 83.039 0.32 5 1@25ab91bf"/>
</svg>