<?xml version="1.0" encoding="utf-8"?>
<svg viewBox="0 0 500 500" width="500" height="500" xmlns="http://www.w3.org/2000/svg" xmlns:xlink="http://www.w3.org/1999/xlink" xmlns:bx="https://boxy-svg.com">
  <defs>
    <radialGradient id="gradient-10-0" gradientUnits="userSpaceOnUse" cx="272.58" cy="239.186" r="197.703" xlink:href="#gradient-10"/>
    <linearGradient id="gradient-10" bx:pinned="true">
      <stop offset="0" style="stop-color: rgb(66, 133, 244);"/>
      <stop offset="0.3" style="stop-color: rgb(0, 188, 212);"/>
      <stop offset="0.6" style="stop-color: rgb(0, 188, 212);"/>
      <stop offset="1" style="stop-color: rgb(66, 133, 244);"/>
    </linearGradient>
  </defs>
  <path d="m101.66,46.03c3.72,-0.69 8.7,-0.84 14.17,0.86c7.38,2.3 17.41,10.41 26.21,14.6c8.53,4.07 16.22,10.84 25.77,10.31c11.27,-0.62 28.45,-14.97 37.8,-18.47c6.12,-2.28 7.48,-2.63 14.17,-3.43c10.72,-1.3 34.85,-3.51 47.26,-1.29c9.58,1.71 14.87,5.71 22.76,9.88c8.79,4.64 19.94,13.19 27.49,17.18c5.61,2.96 8.99,4.16 14.18,6.01c5.73,2.05 11.67,4.41 18.9,5.59c8.46,1.37 20.04,1.72 29.21,1.29c8.51,-0.4 15.91,-1.4 24.05,-3.44c8.6,-2.15 19.55,-8.17 26.21,-9.45c4.54,-0.87 7.43,-0.63 10.74,0c3.11,0.59 5.74,1.68 8.59,3.44c3.24,2 6.79,4.26 9.66,8.37c3.74,5.35 7.57,13.15 9.45,22.77c2.46,12.57 2.54,33.08 0.86,48.11c-1.57,14.06 -6.73,30.35 -9.88,39.52c-2.07,6.02 -3.75,9.48 -6.01,12.88c-1.9,2.85 -4.14,4.75 -6.23,6.66c-1.92,1.76 -3.07,1.58 -5.8,4.51c-5.67,6.09 -24.31,33.65 -27.28,36.73c-0.7,0.73 -0.43,-0.07 -1.07,0.64c-2.47,2.74 -13.01,22.18 -19.98,30.29c-5.99,6.98 -15.07,12.57 -18.68,16.54c-2.11,2.31 -2.68,4.32 -3.65,5.37c-0.59,0.63 -0.86,0.35 -1.5,1.07c-1.29,1.43 -5.06,4.73 -5.59,8.59c-0.71,5.21 3.63,12.11 5.16,21.05c2.09,12.27 6.88,37.89 5.15,47.68c-1.02,5.77 -4.86,8.76 -6.66,10.95c-1.08,1.33 -1.62,1.12 -2.79,2.36c-1.89,2.02 -2.02,12.93 -4.97,15.28c-2.76,2.2 -4.89,3.35 -9.45,4.3c-7.14,1.47 -26.14,-0.23 -31.78,0.85c-2.74,0.53 -2.39,1.61 -4.73,2.15c-3.82,0.89 -11.24,0.35 -17.61,1.29c-7.23,1.06 -15.59,4.29 -23.63,5.16c-8.13,0.87 -18.72,0.72 -24.91,0c-4.33,-0.51 -4.78,-1.67 -9.88,-2.58c-9.37,-1.68 -39.44,4.34 -48.94,1.55c-5.52,-1.62 -8.54,-4.11 -10.53,-5.8c-1.19,-1.02 -1.24,-2.05 -1.93,-2.79c-0.61,-0.65 -1.36,-0.93 -1.93,-1.5c-0.57,-0.57 -0.93,-1.36 -1.51,-1.93c-0.57,-0.58 -1.22,-0.38 -1.93,-1.51c-1.55,-2.46 -4.6,-10.28 -5.58,-16.32c-1.09,-6.7 -0.84,-28.3 0,-35.09c0.75,-6.12 1.75,-11 4.29,-16.75c2.91,-6.58 9.96,-16.56 13.1,-20.4c1.74,-2.12 2.84,-2.41 4.09,-3.66c1.18,-1.19 2.57,-2.96 3.22,-3.65c0.32,-0.35 0.23,-0.22 0.64,-0.64c1.1,-1.14 3.51,-4.75 7.52,-7.95c6.56,-5.24 20.28,-13.68 31.78,-20.19c12.35,-6.98 35.73,-16.86 40.17,-20.19c1.42,-1.06 0.49,-1.12 1.5,-2.14c2.12,-2.15 10.98,-8.46 13.1,-10.53c0.99,-0.95 0.97,-1.41 1.51,-1.93c0.47,-0.46 0.72,-0.25 1.5,-1.07c1.96,-2.07 7.91,-8.99 11.17,-15.04c3.76,-6.99 11.92,-19.81 9.45,-25.13c-2.31,-4.97 -13.81,-3.02 -21.69,-6.87c-9.75,-4.77 -23.08,-17.32 -32.22,-21.48c-6.74,-3.07 -11.63,-3.86 -17.61,-4.29c-6.04,-0.44 -12.45,0.74 -18.47,1.71c-5.93,0.97 -13.87,-1.02 -17.4,4.09c-5.19,7.5 0.85,36.54 -0.86,46.82c-1.04,6.29 -2.5,9.26 -4.72,12.88c-2.08,3.38 -4.39,5.53 -7.95,8.38c-4.54,3.63 -10.59,9.09 -18.04,11.17c-8.85,2.47 -24.87,2.22 -32.65,0.43c-5.47,-1.26 -10.31,-5.37 -11.81,-6.66c-0.58,-0.5 0.08,-0.54 -0.64,-1.07c-2.53,-1.87 -18.67,-7.84 -26.21,-12.03c-6.56,-3.66 -13.8,-8.2 -16.96,-11.38c-1.94,-1.95 -2.21,-2.84 -3.01,-5.16c-1.1,-3.17 -1.69,-6.41 -2.15,-12.89c-0.82,-11.54 -1.27,-39.82 0,-55.41c1.03,-12.62 4.61,-21.95 5.58,-32.22c0.92,-9.57 -0.44,-16.98 0.43,-27.49c1.07,-12.76 4.58,-36.07 6.45,-44.24c0.93,-4.05 1.38,-5.28 2.57,-7.3c1.09,-1.84 2.38,-3.23 4.08,-4.51c1.88,-1.41 3.97,-2.89 6.88,-3.44z" id="svg_2" stroke="rgb(255, 255, 255)" style="fill: url('#gradient-10-0'); stroke-width: 6px;"/>
</svg>