<?xml version="1.0" encoding="utf-8"?>
<svg viewBox="0 0 500 500" xmlns="http://www.w3.org/2000/svg" xmlns:bx="https://boxy-svg.com">
  <g transform="matrix(1, 0, 0, 1, -4.391468, 324.968628)">
    <ellipse style="stroke-width: 15px; stroke: rgb(0, 0, 0);" cx="245.549" cy="253.195" rx="177.541" ry="177.541"/>
    <line style="fill: rgb(216, 216, 216); stroke-width: 15px; stroke: rgb(153, 153, 153); visibility: hidden;" x1="245.922" y1="57.716" x2="246.55" y2="16.311"/>
    <line style="fill: rgb(216, 216, 216); stroke-width: 15px; stroke: rgb(153, 153, 153);" x1="459.988" y1="268.507" x2="460.616" y2="227.102" transform="matrix(0, 1, -1, 0, 708.106499, -212.497505)"/>
    <line style="fill: rgb(216, 216, 216); stroke-width: 15px; stroke: rgb(153, 153, 153);" x1="245.589" y1="484.943" x2="246.217" y2="443.538"/>
    <line style="fill: rgb(216, 216, 216); stroke-width: 15px; stroke: rgb(153, 153, 153);" x1="33.563" y1="261.606" x2="34.191" y2="220.201" transform="matrix(0, 1, -1, 0, 274.780497, 207.026495)"/>
    <line style="fill: rgb(216, 216, 216); stroke-width: 15px; stroke: rgb(153, 153, 153);" x1="380.687" y1="421.133" x2="409.384" y2="390.393" transform="matrix(0, 1, -1, 0, 800.798508, 10.727493)"/>
    <line style="fill: rgb(216, 216, 216); stroke-width: 15px; stroke: rgb(153, 153, 153); visibility: hidden;" x1="77.245" y1="108.218" x2="105.942" y2="77.478" transform="matrix(0, 1, -1, 0, 184.441502, 1.254498)"/>
    <line style="fill: rgb(216, 216, 216); stroke-width: 15px; stroke: rgb(153, 153, 153); visibility: hidden;" x1="393.431" y1="86.262" x2="422.128" y2="117.002" transform="matrix(0, 1, -1, 0, 509.411495, -306.147495)"/>
    <line style="fill: rgb(216, 216, 216); stroke-width: 15px; stroke: rgb(153, 153, 153);" x1="79.754" y1="398.055" x2="108.451" y2="428.795" transform="matrix(0, 1, -1, 0, 507.5275, 319.322506)"/>
  </g>
  <rect x="-3.764" y="424.718" width="505.019" height="75.91" style="fill: rgb(153, 153, 153); stroke: rgb(153, 153, 153); visibility: hidden;"/>
  <ellipse style="stroke: rgb(0, 0, 0); fill: rgb(153, 153, 153); visibility: hidden;" cx="239.335" cy="108.846" rx="84.379" ry="84.379"/>
  <path d="M 150.417 34.296 L 177.095 96.246 L 244.257 102.475 L 193.583 146.991 L 208.413 212.79 L 150.417 178.353 L 92.421 212.79 L 107.251 146.991 L 56.577 102.475 L 123.739 96.246 Z" style="stroke: rgb(0, 0, 0);" bx:shape="star 150.417 132.965 98.669 98.669 0.46 5 1@63303467"/>
  <path d="M 381.102 27.421 L 400.38 72.187 L 448.913 76.689 L 412.295 108.857 L 423.012 156.406 L 381.102 131.52 L 339.192 156.406 L 349.909 108.857 L 313.291 76.689 L 361.824 72.187 Z" style="stroke: rgb(0, 0, 0);" bx:shape="star 381.102 98.722 71.301 71.301 0.46 5 1@9b0bfcc5"/>
  <path d="M 293.434 212.328 L 316.415 265.692 L 374.269 271.058 L 330.618 309.405 L 343.393 366.085 L 293.434 336.421 L 243.475 366.085 L 256.25 309.405 L 212.599 271.058 L 270.453 265.692 Z" style="stroke: rgb(0, 0, 0);" bx:shape="star 293.434 297.323 84.995 84.995 0.46 5 1@d9fc23a6"/>
</svg>