<?xml version="1.0" encoding="utf-8"?>
<svg viewBox="0 0 500 500" width="500" height="500" xmlns="http://www.w3.org/2000/svg" xmlns:bx="https://boxy-svg.com">
  <path d="M 55.198 109.536 L 59.248 116.06 L 65.728 111.939 L 66.547 119.575 L 74.173 118.674 L 71.598 125.908 L 78.86 128.405 L 73.401 133.806 L 78.86 139.207 L 71.598 141.704 L 74.173 148.938 L 66.547 148.037 L 65.728 155.673 L 59.248 151.552 L 55.198 158.076 L 51.148 151.552 L 44.668 155.673 L 43.849 148.037 L 36.223 148.938 L 38.798 141.704 L 31.536 139.207 L 36.996 133.806 L 31.536 128.405 L 38.798 125.908 L 36.223 118.674 L 43.849 119.575 L 44.668 111.939 L 51.148 116.06 Z" style="stroke: rgb(0, 0, 0); fill: rgb(153, 153, 153); stroke-width: 0px;" bx:shape="star 55.198 133.806 24.27 24.27 0.75 14 1@18c4c647"/>
  <path d="M 147.337 134.021 L 150.491 139.101 L 155.537 135.893 L 156.175 141.839 L 162.114 141.137 L 160.108 146.771 L 165.763 148.715 L 161.512 152.921 L 165.763 157.127 L 160.108 159.071 L 162.114 164.705 L 156.175 164.003 L 155.537 169.949 L 150.491 166.741 L 147.337 171.821 L 144.183 166.741 L 139.137 169.949 L 138.499 164.003 L 132.56 164.705 L 134.566 159.071 L 128.911 157.127 L 133.162 152.921 L 128.911 148.715 L 134.566 146.771 L 132.56 141.137 L 138.499 141.839 L 139.137 135.893 L 144.183 139.101 Z" style="stroke: rgb(0, 0, 0); fill: rgb(153, 153, 153); stroke-width: 0px;" bx:shape="star 147.337 152.921 18.9 18.9 0.75 14 1@d054360f"/>
  <path d="M 264.175 110.825 L 266.684 114.866 L 270.698 112.314 L 271.205 117.043 L 275.929 116.485 L 274.334 120.967 L 278.832 122.514 L 275.451 125.859 L 278.832 129.204 L 274.334 130.751 L 275.929 135.233 L 271.205 134.675 L 270.698 139.404 L 266.684 136.852 L 264.175 140.893 L 261.666 136.852 L 257.652 139.404 L 257.145 134.675 L 252.421 135.233 L 254.016 130.751 L 249.518 129.204 L 252.9 125.859 L 249.518 122.514 L 254.016 120.967 L 252.421 116.485 L 257.145 117.043 L 257.652 112.314 L 261.666 114.866 Z" style="stroke: rgb(0, 0, 0); fill: rgb(153, 153, 153); stroke-width: 0px;" bx:shape="star 264.175 125.859 15.034 15.034 0.75 14 1@85bfcf32"/>
  <path d="M 231.1 290.378 L 242.857 309.314 L 261.666 297.354 L 264.042 319.517 L 286.178 316.902 L 278.703 337.901 L 299.781 345.149 L 283.935 360.825 L 299.781 376.501 L 278.703 383.749 L 286.178 404.748 L 264.042 402.133 L 261.666 424.296 L 242.857 412.336 L 231.1 431.272 L 219.343 412.336 L 200.534 424.296 L 198.158 402.133 L 176.022 404.748 L 183.497 383.749 L 162.419 376.501 L 178.265 360.825 L 162.419 345.149 L 183.497 337.901 L 176.022 316.902 L 198.158 319.517 L 200.534 297.354 L 219.343 309.314 Z" style="stroke: rgb(0, 0, 0); fill: rgb(153, 153, 153); stroke-width: 0px;" bx:shape="star 231.1 360.825 70.447 70.447 0.75 14 1@f1bfeaa9"/>
  <path d="M 371.349 232.818 L 374.109 237.263 L 378.525 234.456 L 379.082 239.659 L 384.279 239.045 L 382.524 243.974 L 387.472 245.676 L 383.753 249.356 L 387.472 253.036 L 382.524 254.738 L 384.279 259.667 L 379.082 259.053 L 378.525 264.256 L 374.109 261.449 L 371.349 265.894 L 368.589 261.449 L 364.173 264.256 L 363.616 259.053 L 358.419 259.667 L 360.174 254.738 L 355.226 253.036 L 358.946 249.356 L 355.226 245.676 L 360.174 243.974 L 358.419 239.045 L 363.616 239.659 L 364.173 234.456 L 368.589 237.263 Z" style="stroke: rgb(0, 0, 0); fill: rgb(153, 153, 153); stroke-width: 0px;" bx:shape="star 371.349 249.356 16.538 16.538 0.75 14 1@dde669b7"/>
  <path d="M 73.024 265.034 L 76.25 270.23 L 81.411 266.948 L 82.063 273.029 L 88.137 272.312 L 86.086 278.074 L 91.869 280.063 L 87.522 284.364 L 91.869 288.665 L 86.086 290.654 L 88.137 296.416 L 82.063 295.699 L 81.411 301.78 L 76.25 298.498 L 73.024 303.694 L 69.798 298.498 L 64.637 301.78 L 63.985 295.699 L 57.911 296.416 L 59.962 290.654 L 54.179 288.665 L 58.527 284.364 L 54.179 280.063 L 59.962 278.074 L 57.911 272.312 L 63.985 273.029 L 64.637 266.948 L 69.798 270.23 Z" style="stroke: rgb(0, 0, 0); fill: rgb(153, 153, 153); stroke-width: 0px;" bx:shape="star 73.024 284.364 19.33 19.33 0.75 14 1@1cf955e4"/>
  <path d="M 274.699 194.159 L 278.319 199.99 L 284.111 196.307 L 284.843 203.131 L 291.658 202.326 L 289.357 208.792 L 295.847 211.024 L 290.968 215.851 L 295.847 220.678 L 289.357 222.91 L 291.658 229.376 L 284.843 228.571 L 284.111 235.395 L 278.319 231.712 L 274.699 237.543 L 271.079 231.712 L 265.287 235.395 L 264.555 228.571 L 257.74 229.376 L 260.041 222.91 L 253.551 220.678 L 258.43 215.851 L 253.551 211.024 L 260.041 208.792 L 257.74 202.326 L 264.555 203.131 L 265.287 196.307 L 271.079 199.99 Z" style="stroke: rgb(0, 0, 0); fill: rgb(153, 153, 153); stroke-width: 0px;" bx:shape="star 274.699 215.851 21.692 21.692 0.75 14 1@4713dcf1"/>
  <path d="M 170.533 44.244 L 174.404 50.479 L 180.597 46.541 L 181.38 53.838 L 188.668 52.978 L 186.207 59.892 L 193.147 62.278 L 187.93 67.44 L 193.147 72.602 L 186.207 74.988 L 188.668 81.902 L 181.38 81.042 L 180.597 88.339 L 174.404 84.401 L 170.533 90.636 L 166.662 84.401 L 160.469 88.339 L 159.686 81.042 L 152.398 81.902 L 154.859 74.988 L 147.919 72.602 L 153.136 67.44 L 147.919 62.278 L 154.859 59.892 L 152.398 52.978 L 159.686 53.838 L 160.469 46.541 L 166.662 50.479 Z" style="stroke: rgb(0, 0, 0); fill: rgb(153, 153, 153); stroke-width: 0px;" bx:shape="star 170.533 67.44 23.196 23.196 0.75 14 1@37be4cd6"/>
  <path d="M 398.196 67.44 L 403.501 75.984 L 411.988 70.588 L 413.06 80.588 L 423.048 79.408 L 419.675 88.883 L 429.186 92.154 L 422.036 99.227 L 429.186 106.3 L 419.675 109.571 L 423.048 119.046 L 413.06 117.866 L 411.988 127.866 L 403.501 122.47 L 398.196 131.014 L 392.891 122.47 L 384.404 127.866 L 383.332 117.866 L 373.344 119.046 L 376.717 109.571 L 367.206 106.3 L 374.356 99.227 L 367.206 92.154 L 376.717 88.883 L 373.344 79.408 L 383.332 80.588 L 384.404 70.588 L 392.891 75.984 Z" style="stroke: rgb(0, 0, 0); fill: rgb(153, 153, 153); stroke-width: 0px;" bx:shape="star 398.196 99.227 31.787 31.787 0.75 14 1@da63365a"/>
  <path d="M 112.973 219.501 L 113.833 220.887 L 115.21 220.012 L 115.384 221.633 L 117.003 221.442 L 116.456 222.978 L 117.999 223.509 L 116.839 224.656 L 117.999 225.803 L 116.456 226.334 L 117.003 227.87 L 115.384 227.679 L 115.21 229.3 L 113.833 228.425 L 112.973 229.811 L 112.113 228.425 L 110.736 229.3 L 110.562 227.679 L 108.943 227.87 L 109.49 226.334 L 107.947 225.803 L 109.107 224.656 L 107.947 223.509 L 109.49 222.978 L 108.943 221.442 L 110.562 221.633 L 110.736 220.012 L 112.113 220.887 Z" style="stroke: rgb(0, 0, 0); fill: rgb(153, 153, 153); stroke-width: 0px;" bx:shape="star 112.973 224.656 5.155 5.155 0.75 14 1@7ad1be82"/>
  <path d="M 99.012 355.67 L 102.274 360.924 L 107.492 357.606 L 108.152 363.754 L 114.293 363.029 L 112.219 368.855 L 118.067 370.866 L 113.671 375.215 L 118.067 379.564 L 112.219 381.575 L 114.293 387.401 L 108.152 386.676 L 107.492 392.824 L 102.274 389.506 L 99.012 394.76 L 95.75 389.506 L 90.532 392.824 L 89.872 386.676 L 83.731 387.401 L 85.805 381.575 L 79.957 379.564 L 84.353 375.215 L 79.957 370.866 L 85.805 368.855 L 83.731 363.029 L 89.872 363.754 L 90.532 357.606 L 95.75 360.924 Z" style="stroke: rgb(0, 0, 0); fill: rgb(153, 153, 153); stroke-width: 0px;" bx:shape="star 99.012 375.215 19.545 19.545 0.75 14 1@64230218"/>
  <path d="M 416.881 332.474 L 419.498 336.689 L 423.684 334.027 L 424.213 338.959 L 429.139 338.377 L 427.476 343.051 L 432.167 344.664 L 428.64 348.153 L 432.167 351.642 L 427.476 353.255 L 429.139 357.929 L 424.213 357.347 L 423.684 362.279 L 419.498 359.617 L 416.881 363.832 L 414.264 359.617 L 410.078 362.279 L 409.549 357.347 L 404.623 357.929 L 406.286 353.255 L 401.595 351.642 L 405.122 348.153 L 401.595 344.664 L 406.286 343.051 L 404.623 338.377 L 409.549 338.959 L 410.078 334.027 L 414.264 336.689 Z" style="stroke: rgb(0, 0, 0); fill: rgb(153, 153, 153); stroke-width: 0px;" bx:shape="star 416.881 348.153 15.679 15.679 0.75 14 1@6c085739"/>
</svg>