<?xml version="1.0" encoding="utf-8"?>
<svg viewBox="0 0 500 500" width="500" height="500" xmlns="http://www.w3.org/2000/svg" xmlns:bx="https://boxy-svg.com">
  <path d="M 84.585 318.021 L 92.476 346.128 L 120.583 354.019 L 92.476 361.91 L 84.585 390.017 L 76.694 361.91 L 48.587 354.019 L 76.694 346.128 Z" style="fill: rgb(216, 216, 216); stroke: rgb(0, 0, 0);" bx:shape="star 84.585 354.019 35.998 35.998 0.31 4 1@7f7c386c"/>
  <path d="M 343.419 153.269 L 350.632 178.962 L 376.325 186.175 L 350.632 193.388 L 343.419 219.081 L 336.206 193.388 L 310.513 186.175 L 336.206 178.962 Z" style="fill: rgb(216, 216, 216); stroke: rgb(0, 0, 0);" bx:shape="star 343.419 186.175 32.906 32.906 0.31 4 1@7e9aa206"/>
  <path d="M 296.82 290.636 L 300.886 305.121 L 315.371 309.187 L 300.886 313.253 L 296.82 327.738 L 292.754 313.253 L 278.269 309.187 L 292.754 305.121 Z" style="fill: rgb(216, 216, 216); stroke: rgb(0, 0, 0);" bx:shape="star 296.82 309.187 18.551 18.551 0.31 4 1@e86b4993"/>
  <path d="M 118.154 24.735 L 120.139 31.805 L 127.209 33.79 L 120.139 35.775 L 118.154 42.845 L 116.169 35.775 L 109.099 33.79 L 116.169 31.805 Z" style="fill: rgb(216, 216, 216); stroke: rgb(0, 0, 0);" bx:shape="star 118.154 33.79 9.055 9.055 0.31 4 1@c83f157f"/>
  <path d="M 352.473 50.353 L 353.732 54.836 L 358.215 56.095 L 353.732 57.354 L 352.473 61.837 L 351.214 57.354 L 346.731 56.095 L 351.214 54.836 Z" style="fill: rgb(216, 216, 216); stroke: rgb(0, 0, 0);" bx:shape="star 352.473 56.095 5.742 5.742 0.31 4 1@7a6ebd96"/>
  <path d="M 158.127 191.255 L 159.289 195.393 L 163.427 196.555 L 159.289 197.717 L 158.127 201.855 L 156.965 197.717 L 152.827 196.555 L 156.965 195.393 Z" style="fill: rgb(216, 216, 216); stroke: rgb(0, 0, 0);" bx:shape="star 158.127 196.555 5.3 5.3 0.31 4 1@42834ad1"/>
  <path d="M 424.912 333.039 L 427.429 342.006 L 436.396 344.523 L 427.429 347.04 L 424.912 356.007 L 422.395 347.04 L 413.428 344.523 L 422.395 342.006 Z" style="fill: rgb(216, 216, 216); stroke: rgb(0, 0, 0);" bx:shape="star 424.912 344.523 11.484 11.484 0.31 4 1@af09d256"/>
  <path d="M 236.749 417.403 L 241.881 435.681 L 260.159 440.813 L 241.881 445.945 L 236.749 464.223 L 231.617 445.945 L 213.339 440.813 L 231.617 435.681 Z" style="fill: rgb(216, 216, 216); stroke: rgb(0, 0, 0);" bx:shape="star 236.749 440.813 23.41 23.41 0.31 4 1@33a4ade9"/>
  <path d="M 51.678 151.502 L 58.068 174.264 L 80.83 180.654 L 58.068 187.044 L 51.678 209.806 L 45.288 187.044 L 22.526 180.654 L 45.288 174.264 Z" style="fill: rgb(216, 216, 216); stroke: rgb(0, 0, 0);" bx:shape="star 51.678 180.654 29.152 29.152 0.31 4 1@eea8139e"/>
</svg>